<?xml version="1.0" encoding="iso-8859-1"?>
<!-- Generator: Adobe Illustrator 18.1.1, SVG Export Plug-In . SVG Version: 6.00 Build 0)  -->
<svg version="1.1" id="Capa_1" xmlns="http://www.w3.org/2000/svg" xmlns:xlink="http://www.w3.org/1999/xlink" x="0px" y="0px"
	 viewBox="0 0 26.775 26.775" style="enable-background: new 0 0 26.775 26.775">
<g transform="matrix(-1,0,0,-1,26.7,26.4)">
	<path style="fill: #030104" d="M 13.9 0.4 l 8.3 10 c 0 0 1.3 1.2 -0.1 1.2 c -1.4 0 -4.7 0 -4.7 0 s 0 0.8 0 2 c 0 3.5 0 9.9 0 12.5 c 0 0 0.2 0.7 -0.9 0.7 c -1.1 0 -5.8 0 -6.5 0 c -0.8 0 -0.7 -0.6 -0.7 -0.6 c 0 -2.5 0 -9.1 0 -12.5 c 0 -1.1 0 -1.8 0 -1.8 s -2.6 0 -4.3 0 c -1.7 0 -0.4 -1.2 -0.4 -1.2 s 7 -9.3 8 -10.3 C 13.2 -0.4 13.9 0.4 13.9 0.4 z"/>
</g>
</svg>
